<svg width="46" height="46" viewBox="0 0 46 46" fill="none" xmlns="http://www.w3.org/2000/svg">
<rect width="46" height="46" fill="#E4DDFD"/>
<path d="M35 21.6667V19H32.3333V16.3333C32.3312 15.6267 32.0496 14.9497 31.55 14.45C31.0503 13.9504 30.3733 13.6688 29.6667 13.6667H27V11H24.3333V13.6667H21.6667V11H19V13.6667H16.3333C15.6267 13.6688 14.9497 13.9504 14.45 14.45C13.9504 14.9497 13.6688 15.6267 13.6667 16.3333V19H11V21.6667H13.6667V24.3333H11V27H13.6667V29.6667C13.6688 30.3733 13.9504 31.0503 14.45 31.55C14.9497 32.0496 15.6267 32.3312 16.3333 32.3333H19V35H21.6667V32.3333H24.3333V35H27V32.3333H29.6667C30.3733 32.3312 31.0503 32.0496 31.55 31.55C32.0496 31.0503 32.3312 30.3733 32.3333 29.6667V27H35V24.3333H32.3333V21.6667H35ZM29.6667 29.6667H16.3333V16.3333H29.6667V29.6667Z" fill="#5D34F3"/>
<path d="M22.1481 17.6667H20.3548L17.6748 28.3334H19.0441L19.6628 25.8334H22.7508L23.3535 28.3334H24.7695L22.1481 17.6667ZM19.8428 24.7654L21.2001 18.9334H21.2615L22.5721 24.7654H19.8428ZM25.9921 17.6667H27.3255V28.3334H25.9921V17.6667Z" fill="#5D34F3"/>
</svg>
