<svg width="46" height="46" viewBox="0 0 46 46" fill="none" xmlns="http://www.w3.org/2000/svg">
<rect width="46" height="46" fill="#E4DDFD"/>
<path d="M22.9997 27.6668C22.2924 27.6668 21.6142 27.3859 21.1141 26.8858C20.614 26.3857 20.333 25.7074 20.333 25.0002C20.333 23.5202 21.5197 22.3335 22.9997 22.3335C23.7069 22.3335 24.3852 22.6144 24.8853 23.1145C25.3854 23.6146 25.6663 24.2929 25.6663 25.0002C25.6663 25.7074 25.3854 26.3857 24.8853 26.8858C24.3852 27.3859 23.7069 27.6668 22.9997 27.6668ZM30.9997 31.6668V18.3335H14.9997V31.6668H30.9997ZM30.9997 15.6668C31.7069 15.6668 32.3852 15.9478 32.8853 16.4479C33.3854 16.948 33.6663 17.6263 33.6663 18.3335V31.6668C33.6663 32.3741 33.3854 33.0524 32.8853 33.5524C32.3852 34.0525 31.7069 34.3335 30.9997 34.3335H14.9997C14.2924 34.3335 13.6142 34.0525 13.1141 33.5524C12.614 33.0524 12.333 32.3741 12.333 31.6668V18.3335C12.333 16.8535 13.5197 15.6668 14.9997 15.6668H16.333V13.0002C16.333 11.2321 17.0354 9.53636 18.2856 8.28612C19.5359 7.03588 21.2316 6.3335 22.9997 6.3335C23.8752 6.3335 24.7421 6.50593 25.5509 6.84097C26.3597 7.176 27.0947 7.66706 27.7137 8.28612C28.3328 8.90517 28.8238 9.6401 29.1589 10.4489C29.4939 11.2578 29.6663 12.1247 29.6663 13.0002V15.6668H30.9997ZM22.9997 9.00016C21.9388 9.00016 20.9214 9.42159 20.1712 10.1717C19.4211 10.9219 18.9997 11.9393 18.9997 13.0002V15.6668H26.9997V13.0002C26.9997 11.9393 26.5782 10.9219 25.8281 10.1717C25.078 9.42159 24.0605 9.00016 22.9997 9.00016Z" fill="#5D34F3"/>
</svg>
