<svg width="46" height="46" viewBox="0 0 46 46" fill="none" xmlns="http://www.w3.org/2000/svg">
<rect width="46" height="46" fill="#E4DDFD"/>
<path d="M17.6667 18.9999H28.3333M17.6667 24.3333H25.6667M31 12.3333C32.0609 12.3333 33.0783 12.7547 33.8284 13.5048C34.5786 14.255 35 15.2724 35 16.3333V26.9999C35 28.0608 34.5786 29.0782 33.8284 29.8283C33.0783 30.5785 32.0609 30.9999 31 30.9999H24.3333L17.6667 34.9999V30.9999H15C13.9391 30.9999 12.9217 30.5785 12.1716 29.8283C11.4214 29.0782 11 28.0608 11 26.9999V16.3333C11 15.2724 11.4214 14.255 12.1716 13.5048C12.9217 12.7547 13.9391 12.3333 15 12.3333H31Z" stroke="#5D34F3" strokeWidth="2" strokeLinecap="round" strokeLinejoin="round"/>
</svg>
