<svg width="46" height="46" viewBox="0 0 46 46" fill="none" xmlns="http://www.w3.org/2000/svg">
<rect width="46" height="46" fill="#E4DDFD"/>
<path d="M16.5842 13.5293C16.8221 13.5294 17.0555 13.5932 17.2604 13.7139C17.4653 13.8346 17.6342 14.008 17.7496 14.216L19.3809 17.1533C19.486 17.3428 19.5434 17.555 19.5481 17.7717C19.5527 17.9883 19.5045 18.2028 19.4076 18.3966L17.8362 21.5393C17.8362 21.5393 18.2916 23.88 20.1969 25.786C22.1029 27.6913 24.4356 28.1393 24.4356 28.1393L27.5782 26.568C27.7721 26.4709 27.9868 26.4226 28.2035 26.4273C28.4203 26.4319 28.6327 26.4894 28.8222 26.5946L31.7689 28.2333C31.9765 28.3489 32.1494 28.5179 32.2698 28.7228C32.3902 28.9277 32.4536 29.161 32.4536 29.3986V32.7806C32.4536 34.5033 30.8536 35.7473 29.2216 35.1966C25.8696 34.066 20.6669 31.912 17.3682 28.6146C14.0709 25.3166 11.9176 20.1133 10.7862 16.7613C10.2356 15.1293 11.4796 13.5293 13.2022 13.5293H16.5842Z" stroke="#5D34F3" stroke-width="2" stroke-linejoin="round"/>
<path d="M33 16.9999H25V10.3333H33V12.3333L36.3333 10.9999V16.3333L33 14.9999V16.9999Z" stroke="#5D34F3" stroke-width="2" stroke-linecap="round" stroke-linejoin="round"/>
</svg>
