<svg width="32" height="32" viewBox="0 0 32 32" fill="none" xmlns="http://www.w3.org/2000/svg">
<g clip-path="url(#clip0_2592_981)">
<g clip-path="url(#clip1_2592_981)">
<path d="M26.5028 7.00054C26.2266 7.00235 26.0013 6.77996 25.9995 6.50382C25.9931 5.51954 25.7594 4.50875 25.1554 3.69508C24.5603 2.89342 23.5664 2.22947 21.9288 1.99553C21.6554 1.95647 21.4655 1.70321 21.5045 1.42984C21.5436 1.15647 21.7968 0.966523 22.0702 1.00558C23.9326 1.27163 25.1818 2.05302 25.9583 3.09903C26.7259 4.13302 26.9921 5.37223 26.9995 6.49728C27.0013 6.77342 26.7789 6.99874 26.5028 7.00054ZM23.4995 7.50382C23.5013 7.77996 23.7266 8.00235 24.0028 8.00054C24.2789 7.99874 24.5013 7.77342 24.4995 7.49728C24.4924 6.40609 24.2271 5.15866 23.4495 4.17326C22.6554 3.1669 21.3794 2.50055 19.4995 2.50055C19.2234 2.50055 18.9995 2.72441 18.9995 3.00055C18.9995 3.2767 19.2234 3.50055 19.4995 3.50055C21.1196 3.50055 22.0869 4.06079 22.6645 4.79272C23.2586 5.54561 23.4933 6.54818 23.4995 7.50382ZM4.49951 17.0006C4.77565 17.0006 4.99951 17.2244 4.99951 17.5006C4.99951 18.5234 5.00679 19.4149 5.33408 20.1786C5.64228 20.8977 6.26546 21.5622 7.65762 22.0262C7.9196 22.1135 8.06118 22.3967 7.97385 22.6587C7.88653 22.9206 7.60337 23.0622 7.3414 22.9749C5.73355 22.4389 4.85674 21.6034 4.41494 20.5725C3.99925 19.6026 3.99939 18.5145 3.99951 17.5493V17.5006C3.99951 17.2244 4.22337 17.0006 4.49951 17.0006ZM2.47949 19.0318C2.75563 19.0318 2.97949 19.2557 2.97949 19.5318C2.97949 21.4558 4.42091 24.0318 7.45263 24.0318C7.72878 24.0318 7.95263 24.2557 7.95263 24.5318C7.95263 24.8079 7.72878 25.0318 7.45263 25.0318C3.70311 25.0318 1.97949 21.8266 1.97949 19.5318C1.97949 19.2557 2.20335 19.0318 2.47949 19.0318ZM21.4883 6.8063C21.0442 5.8271 20.2307 5.35758 19.4425 5.21455C18.6998 5.07978 17.9505 5.2228 17.4267 5.47375C16.9586 5.69804 16.4421 6.18913 16.1241 6.87579C16.0418 6.8348 15.9577 6.79733 15.8723 6.76366C15.1571 6.48157 14.2613 6.42651 13.361 6.84292L13.3496 6.84817L13.3384 6.8537C12.8914 7.07419 12.3267 7.52237 11.9698 8.20599C11.5907 8.9323 11.4817 9.86161 11.8994 10.9038C11.9614 11.0586 12.0214 11.2071 12.0793 11.3493C11.6786 11.3814 11.2461 11.4949 10.7887 11.7223C9.69802 12.2645 8.65135 13.9618 9.7294 16.1261L9.74719 16.1618L9.76776 16.196C9.82364 16.2888 9.89044 16.399 9.96316 16.518C9.50467 16.7115 9.08483 17.0024 8.75942 17.3632C8.3424 17.8256 8.04179 18.441 8.02147 19.1695C8.0012 19.8966 8.26257 20.6314 8.77951 21.3349C9.12177 21.8006 9.65575 22.4048 10.1599 22.9347C10.6413 23.4406 11.1553 23.9418 11.5005 24.2166L16.0673 28.3874L16.0799 28.3989L16.0929 28.4099C16.6192 28.8587 17.5359 29.4947 18.6496 30.0224C19.7594 30.5482 21.1359 31.0006 22.562 31.0006C24.3315 31.0006 26.4175 30.3024 28.0715 28.9164C29.7516 27.5085 30.9995 25.3761 30.9995 22.5552V22.5346L30.9986 22.514C30.9487 21.3047 30.6883 20.147 30.4455 19.0679C30.4001 18.866 30.3553 18.6668 30.3126 18.4706C30.0346 17.1926 29.8204 15.9506 29.9263 14.5527C30.059 12.8015 30.0838 12.5278 30.133 11.9862C30.1431 11.8754 30.1542 11.7533 30.1674 11.6051C30.2143 11.0803 30.0402 10.3611 29.6629 9.73637C29.2621 9.07263 28.5701 8.41488 27.5083 8.19348L27.5003 8.19185C26.9884 8.08946 26.1937 8.10585 25.4549 8.49515C24.6517 8.91837 24.024 9.72702 23.8738 10.9749C23.8446 11.2176 23.819 11.4448 23.7962 11.6571C23.676 11.4294 23.5531 11.1905 23.428 10.9418C22.7747 9.64274 22.1075 8.17166 21.4991 6.83002L21.4883 6.8063ZM16.436 10.8031C16.6019 11.1681 16.7582 11.5124 16.8689 11.758C16.9408 11.9323 17.0031 12.0745 17.0468 12.1594L17.0568 12.1786L17.0584 12.1817L17.0662 12.1962C17.5882 13.3415 18.1782 14.4922 18.6374 15.2731C18.9174 15.7492 19.5302 15.9082 20.0063 15.6282C20.4824 15.3483 20.6414 14.7354 20.3614 14.2593C19.9013 13.4767 19.3134 12.3166 18.8144 11.2086C18.7942 11.1629 18.7686 11.1058 18.739 11.0399L18.6987 10.949L18.6721 10.8834C18.5879 10.6745 18.4849 10.409 18.3789 10.1271C18.1674 9.56466 17.9604 8.97909 17.8655 8.65305C17.7672 8.22725 17.8439 7.90283 17.9604 7.67221C18.0221 7.54999 18.0967 7.45165 18.1667 7.38007C18.2397 7.30534 18.2895 7.27818 18.2909 7.2774C18.4625 7.19522 18.7859 7.12806 19.0854 7.18241C19.3394 7.2285 19.5376 7.34742 19.6669 7.63234L19.686 7.67448C20.2887 9.00361 20.9697 10.5052 21.6413 11.8405C22.3068 13.1637 23.0107 14.4226 23.6621 15.1826C23.8867 15.4446 24.2305 15.5723 24.5717 15.5204C24.9129 15.4685 25.2033 15.2444 25.3398 14.9274C25.521 14.5068 25.5775 14.0088 25.6275 13.4998C25.642 13.3527 25.6564 13.1956 25.672 13.0251C25.7156 12.549 25.7687 11.9683 25.8595 11.2137C25.9352 10.585 26.1941 10.3663 26.3873 10.2645C26.6428 10.1299 26.9512 10.1227 27.1046 10.1523C27.509 10.238 27.7738 10.477 27.9509 10.7703C28.0421 10.9213 28.1038 11.0785 28.1395 11.2148C28.1715 11.3371 28.1744 11.41 28.175 11.4253C28.1751 11.4285 28.1752 11.4292 28.1753 11.4272C28.1621 11.5753 28.151 11.6976 28.1409 11.8089C28.0911 12.3571 28.0656 12.6381 27.932 14.4016C27.8036 16.0973 28.0699 17.5702 28.3583 18.8958C28.4069 19.1192 28.4555 19.3364 28.5031 19.5488C28.743 20.6206 28.9556 21.5701 28.9995 22.5758C28.9936 24.7366 28.0559 26.3202 26.7869 27.3835C25.4878 28.4721 23.855 29.0006 22.562 29.0006C21.5381 29.0006 20.4641 28.669 19.506 28.215C18.5617 27.7676 17.7994 27.2343 17.4029 26.8985L12.8223 22.7153L12.7931 22.6886L12.7619 22.6643C12.5442 22.495 12.0998 22.0721 11.6089 21.5561C11.1248 21.0473 10.6588 20.5148 10.3912 20.1506C10.0769 19.7229 10.0154 19.4145 10.0207 19.2253C10.0259 19.0377 10.0992 18.8638 10.2445 18.7027C10.5167 18.4011 10.9203 18.2626 11.2039 18.2536C11.4326 18.5066 11.6681 18.749 11.9014 18.98C12.3073 19.3818 12.7281 19.7693 13.1195 20.1298L13.1551 20.1626C13.5628 20.5381 13.9333 20.8803 14.2528 21.2036C14.641 21.5963 15.2742 21.6 15.667 21.2118C16.0598 20.8235 16.0634 20.1904 15.6752 19.7976C15.3169 19.4351 14.9109 19.0607 14.5101 18.6915L14.4846 18.668C14.086 18.3009 13.6883 17.9346 13.3085 17.5586C12.9028 17.1571 12.5405 16.7661 12.2404 16.3843C12.1894 16.3065 12.1325 16.2179 12.0717 16.122C11.8957 15.8446 11.7006 15.527 11.5533 15.2837C11.3719 14.8621 11.3127 14.3669 11.3487 13.9344C11.4462 13.6796 11.6155 13.5448 11.6791 13.5132C12.1234 13.2922 12.4453 13.3254 12.6672 13.4015C12.9253 13.4901 13.1019 13.6587 13.1562 13.7303L13.1718 13.7198C13.2111 13.7871 13.2505 13.8541 13.2899 13.9205C14.0414 15.1875 14.8567 16.3794 15.4035 17.1272C15.7294 17.573 16.3551 17.6702 16.8009 17.3442C17.2467 17.0182 17.3439 16.3925 17.0179 15.9467C16.5022 15.2414 15.7236 14.1031 15.0101 12.9002C14.883 12.6861 14.7597 12.4725 14.6413 12.2612C14.598 12.1666 14.5481 12.0555 14.4918 11.9273C14.3087 11.5103 14.0623 10.9243 13.7558 10.1598C13.5548 9.65824 13.6346 9.33886 13.7428 9.13144C13.8701 8.88762 14.0835 8.71939 14.2132 8.65238C14.558 8.49704 14.8764 8.5208 15.1385 8.62417C15.2755 8.67822 15.3913 8.75247 15.4773 8.82822C15.5197 8.86561 15.5512 8.90017 15.5731 8.92836C15.5838 8.94226 15.5915 8.95365 15.5967 8.96208L15.6008 8.96909L15.6023 8.97177L15.6036 8.97435C15.6036 8.97436 15.6039 8.97494 15.6036 8.97435C15.6543 9.08638 15.7827 9.36834 15.9422 9.71855C16.0917 10.0468 16.2689 10.4358 16.436 10.8031Z" fill="#212121"/>
</g>
</g>
<defs>
<clipPath id="clip0_2592_981">
<rect width="32" height="32" fill="white"/>
</clipPath>
<clipPath id="clip1_2592_981">
<rect width="32" height="32" fill="white"/>
</clipPath>
</defs>
</svg>
